<?xml version="1.0" encoding="UTF-8" standalone="no"?>
<!DOCTYPE svg PUBLIC "-//W3C//DTD SVG 1.1//EN" "http://www.w3.org/Graphics/SVG/1.1/DTD/svg11.dtd">
<svg width="100%" height="100%" viewBox="0 0 3270 932" version="1.1" xmlns="http://www.w3.org/2000/svg" xmlns:xlink="http://www.w3.org/1999/xlink" xml:space="preserve" xmlns:serif="http://www.serif.com/" style="fill-rule:evenodd;clip-rule:evenodd;stroke-linecap:round;stroke-linejoin:round;stroke-miterlimit:1.5;">
    <g transform="matrix(1,0,0,1,-7013,0)">
        <g id="NSLysium_Logotype_Principal_1_contour" transform="matrix(1,0,0,1,3506.845665,0)">
            <rect x="3506.154" y="0" width="3269.934" height="931.258" style="fill:none;"/>
            <g id="Logo-thick" serif:id="Logo thick" transform="matrix(0.653487,0,0,0.653487,3744.090343,-212.636542)">
                <g transform="matrix(1.530252,0,0,1.530252,-671.188634,-2799.21694)">
                    <path d="M822.948,2381.379L822.948,2635.455C822.948,2650.891 810.416,2663.424 794.979,2663.424C788.061,2663.424 781.726,2660.906 776.841,2656.739C776.841,2656.739 584.365,2464.097 583.731,2463.607C582.156,2462.391 580.181,2461.667 578.039,2461.667C572.893,2461.667 568.715,2465.845 568.715,2470.991L568.715,2638.434C567.226,2652.472 555.333,2663.424 540.903,2663.424C525.466,2663.424 512.934,2650.891 512.934,2635.455L512.934,2381.379C512.934,2365.942 525.466,2353.409 540.903,2353.409C547.792,2353.409 554.102,2355.905 558.979,2360.041C558.979,2360.041 751.36,2552.659 752.199,2553.261C753.751,2554.376 755.654,2555.033 757.709,2555.033C762.929,2555.033 767.167,2550.795 767.167,2545.575L767.167,2378.399C768.656,2364.361 780.549,2353.409 794.979,2353.409C810.416,2353.409 822.948,2365.942 822.948,2381.379Z" style="fill:none;stroke:black;stroke-width:4.17px;"/>
                </g>
                <g transform="matrix(0.717247,0,0,0.717247,32.157294,602.319573)">
                    <path d="M869.635,473.542C869.635,421.821 890.181,372.218 926.754,335.646C963.326,299.073 1012.929,278.527 1064.65,278.527C1203.496,278.527 1380.949,278.527 1471.728,278.527C1504.492,278.527 1531.052,305.087 1531.052,337.851L1531.052,337.853C1531.052,370.617 1504.492,397.177 1471.728,397.177C1372.731,397.177 1173.955,397.177 1064.648,397.177C1044.395,397.177 1024.972,405.223 1010.651,419.544C996.331,433.864 988.285,453.287 988.285,473.54C988.285,473.543 988.285,473.545 988.285,473.548C988.285,493.801 996.331,513.224 1010.651,527.544C1024.972,541.865 1044.395,549.911 1064.648,549.911C1134.901,549.911 1242.112,549.911 1336.037,549.911C1387.758,549.911 1437.361,570.457 1473.934,607.029C1510.506,643.602 1531.052,693.205 1531.052,744.926L1531.052,744.929C1531.052,796.65 1510.506,846.253 1473.934,882.826C1437.361,919.398 1387.758,939.944 1336.037,939.944C1197.191,939.944 1019.738,939.944 928.959,939.944C896.195,939.944 869.635,913.384 869.635,880.62L869.635,880.618C869.635,847.854 896.195,821.294 928.959,821.294C1027.956,821.294 1226.732,821.294 1336.039,821.294C1356.292,821.294 1375.715,813.249 1390.036,798.928C1404.357,784.607 1412.402,765.184 1412.402,744.931C1412.402,744.929 1412.402,744.926 1412.402,744.923C1412.402,724.671 1404.357,705.248 1390.036,690.927C1375.715,676.606 1356.292,668.561 1336.039,668.561L1064.65,668.561C1012.929,668.561 963.326,648.015 926.754,611.442C890.181,574.87 869.635,525.267 869.635,473.546L869.635,473.542Z" style="fill:none;stroke:black;stroke-width:8.89px;"/>
                </g>
                <g transform="matrix(1.530252,0,0,1.530252,-2993.67722,-1697.051654)">
                    <path d="M3016.436,1942.62C2868.079,1933.585 2749.154,1814.835 2739.842,1666.554C2739.657,1663.62 2739.516,1660.675 2739.418,1657.719C2740.949,1643.485 2753.015,1632.386 2767.653,1632.386C2780.951,1632.386 2792.127,1641.547 2795.209,1653.896C2795.373,1657.204 2795.603,1660.494 2795.897,1663.766C2806.464,1781.383 2900.034,1875.234 3017.525,1886.236C3021.772,1886.634 3026.051,1886.923 3030.358,1887.102C3042.127,1890.663 3050.705,1901.601 3050.705,1914.526C3050.705,1929.331 3039.45,1941.528 3025.036,1943.02C3022.159,1942.927 3019.292,1942.794 3016.436,1942.62Z" style="fill:none;stroke:black;stroke-width:4.17px;"/>
                </g>
                <g transform="matrix(0.717247,0,0,0.717247,32.157294,602.319573)">
                    <path d="M2381.446,337.851C2381.446,305.087 2408.006,278.527 2440.77,278.527L2440.772,278.527C2456.506,278.527 2471.595,284.777 2482.721,295.903C2493.846,307.028 2500.096,322.118 2500.096,337.851C2500.096,382.57 2500.096,443.697 2500.096,488.836C2500.096,522.566 2527.44,549.911 2561.171,549.911C2641.707,549.911 2782.602,549.911 2863.138,549.911C2896.869,549.911 2924.213,522.566 2924.213,488.836C2924.213,443.697 2924.213,382.57 2924.213,337.851C2924.213,322.118 2930.463,307.028 2941.589,295.903C2952.714,284.777 2967.803,278.527 2983.537,278.527C2983.538,278.527 2983.538,278.527 2983.539,278.527C3016.303,278.527 3042.863,305.087 3042.863,337.851L3042.863,747.041C3042.863,853.579 2956.497,939.944 2849.96,939.944C2710.806,939.944 2532.01,939.944 2440.77,939.944C2408.006,939.944 2381.446,913.384 2381.446,880.62C2381.446,880.619 2381.446,880.619 2381.446,880.618C2381.446,847.854 2408.006,821.294 2440.77,821.294C2539.585,821.294 2737.81,821.294 2847.244,821.294C2889.753,821.294 2924.213,786.834 2924.213,744.326C2924.213,744.324 2924.213,744.323 2924.213,744.321C2924.213,701.813 2889.753,667.353 2847.244,667.353C2776.149,667.353 2667.577,667.353 2573.136,667.353C2522.296,667.353 2473.539,647.157 2437.591,611.208C2401.642,575.259 2381.446,526.502 2381.446,475.663C2381.446,425.518 2381.446,375.132 2381.446,337.851Z" style="fill:none;stroke:black;stroke-width:8.89px;"/>
                </g>
                <g transform="matrix(0.717247,0,0,0.717247,32.157294,602.319573)">
                    <path d="M3137.351,473.542C3137.351,421.821 3157.898,372.218 3194.47,335.646C3231.043,299.073 3280.646,278.527 3332.367,278.527C3471.213,278.527 3648.665,278.527 3739.444,278.527C3772.208,278.527 3798.769,305.087 3798.769,337.851L3798.769,337.853C3798.769,370.617 3772.208,397.177 3739.445,397.177C3640.447,397.177 3441.672,397.177 3332.364,397.177C3312.112,397.177 3292.689,405.223 3278.368,419.544C3264.047,433.864 3256.002,453.287 3256.002,473.54C3256.002,473.543 3256.002,473.545 3256.002,473.548C3256.002,493.801 3264.047,513.224 3278.368,527.544C3292.689,541.865 3312.112,549.911 3332.364,549.911C3402.618,549.911 3509.829,549.911 3603.753,549.911C3655.475,549.911 3705.078,570.457 3741.65,607.029C3778.223,643.602 3798.769,693.205 3798.769,744.926L3798.769,744.929C3798.769,796.65 3778.223,846.253 3741.65,882.826C3705.078,919.398 3655.475,939.944 3603.753,939.944C3464.907,939.944 3287.455,939.944 3196.676,939.944C3163.912,939.944 3137.351,913.384 3137.351,880.62L3137.351,880.618C3137.351,847.854 3163.912,821.294 3196.676,821.294C3295.673,821.294 3494.448,821.294 3603.756,821.294C3624.008,821.294 3643.432,813.249 3657.752,798.928C3672.073,784.607 3680.118,765.184 3680.118,744.931C3680.118,744.929 3680.118,744.926 3680.118,744.923C3680.118,724.671 3672.073,705.248 3657.752,690.927C3643.432,676.606 3624.008,668.561 3603.756,668.561C3533.503,668.561 3426.292,668.561 3332.367,668.561C3280.645,668.561 3231.043,648.015 3194.47,611.442C3157.898,574.87 3137.351,525.267 3137.351,473.546L3137.351,473.542Z" style="fill:none;stroke:black;stroke-width:8.89px;"/>
                </g>
                <g id="Logo-2-VARIANTE" serif:id="Logo 2 VARIANTE" transform="matrix(1.152433,0,0,0.966843,-301.193874,-380.297389)">
                    <g transform="matrix(0.255298,0,0,1.038614,1972.863051,13.089371)">
                        <path d="M3034.965,1178.743C3034.965,1171.1 3056.114,1164.903 3082.202,1164.903C3082.207,1164.903 3082.212,1164.903 3082.217,1164.903C3108.305,1164.903 3129.454,1171.1 3129.454,1178.743C3129.454,1247.793 3129.454,1554.454 3129.454,1623.504C3129.454,1631.148 3108.305,1637.344 3082.217,1637.344C3082.212,1637.344 3082.207,1637.344 3082.202,1637.344C3056.114,1637.344 3034.965,1631.148 3034.965,1623.504C3034.965,1554.454 3034.965,1247.793 3034.965,1178.743Z" style="fill:none;stroke:black;stroke-width:8.62px;"/>
                    </g>
                    <g transform="matrix(0.248016,0,0,1.008988,2060.254466,1.878846)">
                        <path d="M3034.965,1283.41C3034.965,1279.739 3039.943,1276.219 3048.802,1273.623C3057.662,1271.027 3069.678,1269.569 3082.208,1269.569C3082.209,1269.569 3082.21,1269.569 3082.211,1269.569C3094.741,1269.569 3106.757,1271.027 3115.617,1273.623C3124.476,1276.219 3129.454,1279.739 3129.454,1283.41C3129.454,1341.516 3129.454,1565.397 3129.454,1623.503C3129.454,1627.174 3124.476,1630.694 3115.617,1633.29C3106.757,1635.886 3094.741,1637.344 3082.211,1637.344C3082.21,1637.344 3082.209,1637.344 3082.208,1637.344C3069.678,1637.344 3057.662,1635.886 3048.802,1633.29C3039.943,1630.694 3034.965,1627.174 3034.965,1623.503C3034.965,1565.397 3034.965,1341.516 3034.965,1283.41Z" style="fill:none;stroke:black;stroke-width:8.87px;"/>
                    </g>
                    <g transform="matrix(0.255298,0,0,1.038614,2102.755235,13.089371)">
                        <path d="M3034.965,1178.743C3034.965,1171.1 3056.114,1164.903 3082.202,1164.903C3082.207,1164.903 3082.212,1164.903 3082.217,1164.903C3108.305,1164.903 3129.454,1171.1 3129.454,1178.743C3129.454,1247.793 3129.454,1554.454 3129.454,1623.504C3129.454,1631.148 3108.305,1637.344 3082.217,1637.344C3082.212,1637.344 3082.207,1637.344 3082.202,1637.344C3056.114,1637.344 3034.965,1631.148 3034.965,1623.504C3034.965,1554.454 3034.965,1247.793 3034.965,1178.743Z" style="fill:none;stroke:black;stroke-width:8.62px;"/>
                    </g>
                </g>
                <g transform="matrix(0.717247,0,0,0.717247,221.157294,602.319573)">
                    <path d="M4082.233,337.851C4082.233,305.087 4108.794,278.527 4141.558,278.527L4141.559,278.527C4174.323,278.527 4200.884,305.087 4200.884,337.851C4200.884,403.053 4200.884,511.537 4200.884,609.236C4200.884,665.477 4223.225,719.415 4262.994,759.184C4302.763,798.952 4356.7,821.294 4412.941,821.294C4412.942,821.294 4412.942,821.294 4412.942,821.294C4469.184,821.294 4523.121,798.952 4562.89,759.184C4602.659,719.415 4625,665.477 4625,609.236C4625,511.537 4625,403.053 4625,337.851C4625,305.087 4651.561,278.527 4684.325,278.527C4684.325,278.527 4684.326,278.527 4684.326,278.527C4717.09,278.527 4743.651,305.087 4743.651,337.851C4743.651,400.656 4743.651,504.946 4743.651,609.236C4743.651,791.881 4595.587,939.944 4412.942,939.944L4412.942,939.944C4230.297,939.944 4082.233,791.881 4082.233,609.236C4082.233,504.946 4082.233,400.656 4082.233,337.851Z" style="fill:none;stroke:black;stroke-width:8.89px;"/>
                </g>
                <g transform="matrix(0.717247,0,0,0.717247,3608.886022,-251.387527)">
                    <path d="M113.729,1663.042C113.729,1611.521 134.196,1562.11 170.627,1525.679C207.058,1489.249 256.469,1468.782 307.99,1468.782L580.886,1468.782C632.407,1468.782 681.818,1489.249 718.249,1525.679C754.68,1562.11 775.147,1611.521 775.147,1663.042C775.147,1802 775.147,1979.931 775.147,2070.875C775.147,2103.639 748.586,2130.199 715.822,2130.199C715.822,2130.199 715.821,2130.199 715.821,2130.199C683.057,2130.199 656.496,2103.639 656.496,2070.875C656.496,1971.856 656.496,1773.014 656.496,1663.722C656.496,1643.488 648.459,1624.084 634.152,1609.777C619.845,1595.47 600.44,1587.432 580.207,1587.432C580.156,1587.432 580.104,1587.432 580.053,1587.432C559.819,1587.432 540.415,1595.47 526.108,1609.777C511.801,1624.084 503.763,1643.488 503.763,1663.722C503.763,1773.014 503.763,1971.856 503.763,2070.875C503.763,2103.639 477.203,2130.199 444.439,2130.199C444.438,2130.199 444.438,2130.199 444.437,2130.199C411.673,2130.199 385.113,2103.639 385.113,2070.875C385.113,1971.856 385.113,1773.014 385.113,1663.722C385.113,1643.488 377.075,1624.084 362.768,1609.777C348.461,1595.47 329.057,1587.432 308.823,1587.432C308.772,1587.432 308.721,1587.432 308.669,1587.432C288.436,1587.432 269.031,1595.47 254.724,1609.777C240.417,1624.084 232.38,1643.488 232.38,1663.722C232.38,1773.014 232.38,1971.856 232.38,2070.875C232.38,2103.639 205.819,2130.199 173.056,2130.199C173.055,2130.199 173.054,2130.199 173.054,2130.199C140.29,2130.199 113.729,2103.639 113.729,2070.875C113.729,1979.931 113.729,1802 113.729,1663.042Z" style="fill:none;stroke:black;stroke-width:8.89px;"/>
                </g>
            </g>
        </g>
    </g>
</svg>
