<?xml version="1.0" encoding="UTF-8" standalone="no"?>
<!DOCTYPE svg PUBLIC "-//W3C//DTD SVG 1.1//EN" "http://www.w3.org/Graphics/SVG/1.1/DTD/svg11.dtd">
<svg width="100%" height="100%" viewBox="0 0 1930 1926" version="1.1" xmlns="http://www.w3.org/2000/svg" xmlns:xlink="http://www.w3.org/1999/xlink" xml:space="preserve" xmlns:serif="http://www.serif.com/" style="fill-rule:evenodd;clip-rule:evenodd;stroke-linejoin:round;stroke-miterlimit:2;">
    <g transform="matrix(1,0,0,1,-12166,-23718)">
        <g id="NSLysium_L_ambre" transform="matrix(1,0,0,1,3505.139661,0)">
            <rect x="8660.86" y="23718" width="1929.64" height="1925.597" style="fill:none;"/>
            <g transform="matrix(2.061844,0,0,2.061844,3656.787465,20995.246071)">
                <path d="M3016.436,1942.62C2868.079,1933.585 2749.154,1814.835 2739.842,1666.554C2739.657,1663.62 2739.516,1660.675 2739.418,1657.719C2740.949,1643.485 2753.015,1632.386 2767.653,1632.386C2780.951,1632.386 2792.127,1641.547 2795.209,1653.896C2795.373,1657.204 2795.603,1660.494 2795.897,1663.766C2806.464,1781.383 2900.034,1875.234 3017.525,1886.236C3021.772,1886.634 3026.051,1886.923 3030.358,1887.102C3042.127,1890.663 3050.705,1901.601 3050.705,1914.526C3050.705,1929.331 3039.45,1941.528 3025.036,1943.02C3022.159,1942.927 3019.292,1942.794 3016.436,1942.62Z" style="fill:rgb(241,152,58);"/>
            </g>
        </g>
    </g>
</svg>
