<?xml version="1.0" encoding="UTF-8" standalone="no"?>
<!DOCTYPE svg PUBLIC "-//W3C//DTD SVG 1.1//EN" "http://www.w3.org/Graphics/SVG/1.1/DTD/svg11.dtd">
<svg width="100%" height="100%" viewBox="0 0 1510 1894" version="1.1" xmlns="http://www.w3.org/2000/svg" xmlns:xlink="http://www.w3.org/1999/xlink" xml:space="preserve" xmlns:serif="http://www.serif.com/" style="fill-rule:evenodd;clip-rule:evenodd;stroke-linecap:round;stroke-linejoin:round;stroke-miterlimit:1.5;">
    <g transform="matrix(1,0,0,1,-1776,-9843)">
        <g id="NSLysium_Icon_Principal_blanc" transform="matrix(1,0,0,1,-0.905493,-0.614357)">
            <rect x="1776.905" y="9843.614" width="1509.808" height="1893.374" style="fill:none;"/>
            <g id="Logo-2-VARIANTE" serif:id="Logo 2 VARIANTE" transform="matrix(1.531103,0,0,1.284531,-1792.614131,8904.827936)">
                <g transform="matrix(0.255298,0,0,1.038614,1972.863051,13.089371)">
                    <path d="M3034.965,1178.744C3034.965,1175.074 3039.943,1171.553 3048.802,1168.957C3057.661,1166.362 3069.677,1164.903 3082.207,1164.903L3082.212,1164.903C3094.742,1164.903 3106.758,1166.362 3115.617,1168.957C3124.476,1171.553 3129.454,1175.074 3129.454,1178.744C3129.454,1247.796 3129.454,1554.451 3129.454,1623.503C3129.454,1627.174 3124.476,1630.694 3115.617,1633.29C3106.758,1635.886 3094.742,1637.344 3082.212,1637.344L3082.207,1637.344C3069.677,1637.344 3057.661,1635.886 3048.802,1633.29C3039.943,1630.694 3034.965,1627.174 3034.965,1623.503C3034.965,1554.451 3034.965,1247.796 3034.965,1178.744Z" style="fill:white;stroke:white;stroke-width:4.07px;"/>
                </g>
                <g transform="matrix(0.248016,0,0,1.008988,2060.254466,1.878846)">
                    <path d="M3034.965,1283.41C3034.965,1275.766 3056.117,1269.569 3082.208,1269.569L3082.211,1269.569C3108.302,1269.569 3129.454,1275.766 3129.454,1283.41C3129.454,1341.516 3129.454,1565.397 3129.454,1623.502C3129.454,1631.147 3108.302,1637.344 3082.211,1637.344C3082.21,1637.344 3082.209,1637.344 3082.208,1637.344C3056.117,1637.344 3034.965,1631.147 3034.965,1623.502C3034.965,1565.397 3034.965,1341.516 3034.965,1283.41Z" style="fill:white;stroke:white;stroke-width:4.19px;"/>
                </g>
                <g transform="matrix(0.255298,0,0,1.038614,2102.755235,13.089371)">
                    <path d="M3034.965,1178.744C3034.965,1175.074 3039.943,1171.553 3048.802,1168.957C3057.661,1166.362 3069.677,1164.903 3082.207,1164.903L3082.212,1164.903C3094.742,1164.903 3106.758,1166.362 3115.617,1168.957C3124.476,1171.553 3129.454,1175.074 3129.454,1178.744C3129.454,1247.796 3129.454,1554.451 3129.454,1623.503C3129.454,1627.174 3124.476,1630.694 3115.617,1633.29C3106.758,1635.886 3094.742,1637.344 3082.212,1637.344L3082.207,1637.344C3069.677,1637.344 3057.661,1635.886 3048.802,1633.29C3039.943,1630.694 3034.965,1627.174 3034.965,1623.503C3034.965,1554.451 3034.965,1247.796 3034.965,1178.744Z" style="fill:white;stroke:white;stroke-width:4.07px;"/>
                </g>
            </g>
        </g>
    </g>
</svg>
